<?xml version="1.0"?>
<svg xmlns="http://www.w3.org/2000/svg" version="1.0" width="512px" height="512px" viewBox="0 0 3053.000000 3053.000000" preserveAspectRatio="xMidYMid meet" class=""><g><g transform="translate(0.000000,3053.000000) scale(0.100000,-0.100000)" fill="#000000" stroke="none">
<path d="M14575 30520 c-2566 -124 -4968 -845 -7140 -2143 -3701 -2211 -6310 -5906 -7144 -10117 -213 -1072 -301 -2050 -288 -3185 6 -488 11 -609 42 -1020 242 -3140 1467 -6143 3496 -8569 1167 -1395 2548 -2556 4114 -3458 2613 -1506 5613 -2197 8645 -1992 3449 232 6673 1607 9245 3942 208 189 821 802 1007 1007 1712 1887 2912 4123 3521 6560 588 2349 609 4837 61 7195 -443 1905 -1254 3712 -2386 5318 -917 1301 -2053 2472 -3323 3424 -1783 1336 -3802 2256 -5969 2717 -749 160 -1437 253 -2316 312 -209 14 -1326 20 -1565 9z m-7465 -9426 c0 -770 3 -1152 10 -1165 10 -18 24 -19 289 -19 221 0 281 3 290 13 8 10 12 334 13 1163 l3 1149 278 3 277 2 0 -1139 c0 -716 4 -1149 10 -1165 l10 -26 278 0 c203 0 281 3 290 12 9 9 12 277 12 1146 0 762 3 1140 10 1153 10 18 24 19 280 19 l269 0 6 -42 c3 -24 5 -916 3 -1983 -3 -1800 -5 -1944 -21 -1990 -9 -27 -17 -61 -17 -75 0 -25 -30 -126 -57 -190 -8 -19 -21 -48 -28 -65 -24 -58 -88 -182 -107 -210 -90 -126 -282 -335 -307 -335 -5 0 -17 -12 -27 -27 -18 -27 -19 -150 -24 -4183 -5 -3870 -7 -4159 -23 -4209 -32 -104 -101 -242 -144 -293 -116 -135 -178 -186 -298 -246 -102 -50 -133 -61 -225 -78 -138 -26 -189 -27 -300 -6 -109 21 -146 32 -216 63 -23 11 -44 19 -48 19 -3 0 -29 16 -56 35 -27 19 -53 35 -56 35 -11 0 -178 172 -199 205 -67 103 -103 185 -133 305 -14 59 -16 432 -22 4210 -3 2280 -6 4145 -8 4146 -16 7 -135 108 -162 138 -19 22 -42 47 -51 55 -67 69 -204 281 -229 355 -6 20 -16 38 -21 41 -5 4 -9 14 -9 23 0 9 -6 29 -14 44 -8 15 -17 42 -21 60 -4 18 -13 53 -21 78 -8 25 -16 71 -20 103 -3 31 -12 63 -20 71 -12 13 -14 290 -14 1980 l0 1966 285 0 285 0 0 -1146z m16274 1130 c161 -31 295 -99 395 -202 47 -48 141 -188 141 -210 0 -7 6 -23 14 -35 8 -12 17 -43 21 -69 3 -26 13 -54 21 -62 12 -13 14 -843 14 -6311 0 -5468 -2 -6298 -14 -6311 -8 -8 -17 -36 -21 -62 -3 -26 -12 -60 -20 -75 -8 -16 -15 -33 -15 -38 0 -10 -40 -95 -64 -134 -82 -139 -225 -273 -346 -325 -14 -6 -38 -17 -55 -24 -103 -48 -289 -83 -378 -72 -163 20 -247 44 -362 103 -103 53 -196 131 -285 240 -51 63 -140 241 -140 281 0 11 -7 39 -15 62 -13 37 -15 383 -15 2881 0 1839 -3 2847 -10 2864 -5 14 -18 28 -27 32 -21 6 -107 48 -142 68 -40 22 -160 127 -195 170 -87 106 -144 211 -183 335 -16 51 -17 206 -20 2210 -3 1893 -1 2164 12 2229 8 40 15 94 15 120 0 26 6 71 14 101 8 30 17 82 22 115 4 33 13 74 20 92 8 18 14 47 14 65 1 18 7 44 15 58 8 14 14 34 15 45 0 26 38 152 56 187 8 14 14 34 14 45 1 10 9 36 20 58 11 22 20 47 20 55 0 8 7 24 15 34 8 11 15 28 15 37 0 10 7 30 15 46 33 64 95 202 95 212 0 6 4 11 9 11 5 0 12 12 16 27 4 16 11 33 17 40 5 7 18 27 27 45 46 87 71 131 100 173 17 25 31 48 31 51 0 2 17 28 37 57 20 28 51 72 68 97 33 50 161 215 185 240 8 8 33 37 55 64 64 79 208 221 261 258 27 19 72 45 99 57 28 13 61 29 75 36 14 7 52 16 85 20 33 4 69 11 80 16 32 12 91 10 179 -7z m-7814 -1165 c146 -5 297 -17 337 -25 40 -8 96 -14 125 -14 29 0 71 -5 93 -11 22 -5 81 -16 130 -24 156 -26 209 -36 260 -50 48 -13 83 -21 210 -50 33 -7 74 -18 90 -23 69 -24 171 -52 186 -52 8 0 19 -4 25 -9 5 -6 27 -14 49 -20 47 -11 117 -36 162 -56 17 -8 39 -15 50 -15 10 0 27 -7 37 -15 11 -8 26 -15 33 -15 8 0 35 -9 61 -21 26 -11 61 -26 77 -33 145 -63 198 -88 375 -175 96 -47 193 -98 216 -113 22 -15 52 -32 65 -38 13 -6 38 -19 54 -30 17 -11 41 -25 55 -32 14 -7 47 -28 75 -46 27 -18 57 -37 65 -42 39 -24 180 -119 223 -150 71 -51 366 -279 386 -299 10 -9 51 -45 92 -81 175 -153 355 -333 519 -520 36 -40 72 -81 81 -91 19 -20 247 -314 299 -386 28 -39 95 -139 150 -223 5 -8 24 -38 42 -65 18 -28 39 -61 46 -75 7 -14 21 -38 32 -55 11 -16 24 -40 29 -52 6 -12 22 -41 37 -65 15 -24 68 -124 117 -223 88 -179 95 -195 137 -290 12 -27 28 -63 36 -78 8 -16 14 -33 14 -39 0 -6 8 -29 19 -52 37 -82 51 -117 51 -129 0 -7 7 -25 15 -41 9 -16 20 -46 24 -65 9 -34 19 -64 47 -141 7 -19 22 -69 34 -110 12 -41 28 -97 36 -125 15 -54 27 -100 44 -180 6 -27 17 -72 25 -100 14 -52 25 -108 50 -260 8 -49 19 -110 24 -135 6 -25 10 -67 11 -93 0 -26 6 -80 14 -120 8 -40 20 -200 26 -357 13 -322 0 -800 -26 -927 -8 -40 -14 -96 -14 -125 0 -29 -5 -71 -11 -93 -5 -22 -16 -80 -24 -130 -20 -128 -34 -203 -50 -260 -7 -27 -18 -72 -24 -100 -22 -106 -39 -172 -50 -193 -6 -11 -11 -32 -11 -47 0 -14 -6 -38 -14 -53 -7 -15 -17 -45 -21 -67 -4 -22 -11 -45 -15 -50 -5 -6 -13 -29 -19 -50 -13 -53 -74 -224 -89 -252 -7 -12 -12 -27 -12 -33 0 -6 -8 -30 -18 -53 -10 -23 -27 -62 -37 -87 -10 -25 -26 -63 -36 -86 -11 -22 -19 -46 -19 -52 0 -7 -4 -12 -10 -12 -5 0 -10 -5 -10 -11 0 -18 -66 -156 -146 -304 -29 -55 -56 -107 -60 -115 -16 -33 -150 -258 -179 -300 -17 -25 -34 -50 -36 -56 -8 -21 -240 -345 -293 -409 -13 -16 -48 -59 -76 -95 -212 -267 -565 -618 -835 -831 -44 -35 -82 -67 -85 -70 -5 -7 -124 -94 -205 -150 -22 -15 -71 -51 -110 -78 -38 -28 -94 -65 -124 -83 -29 -18 -64 -40 -76 -48 -174 -113 -505 -287 -755 -397 -19 -9 -48 -22 -63 -29 -16 -8 -34 -14 -40 -14 -7 -1 -30 -9 -52 -20 -22 -11 -47 -19 -56 -20 -8 0 -24 -7 -35 -15 -10 -8 -25 -15 -32 -15 -8 0 -28 -6 -45 -14 -32 -14 -107 -40 -162 -56 -16 -5 -48 -15 -70 -24 -22 -8 -47 -15 -56 -16 -9 0 -30 -7 -45 -15 -16 -8 -39 -15 -51 -15 -12 0 -34 -5 -50 -11 -26 -11 -73 -23 -188 -49 -27 -6 -75 -18 -105 -25 -68 -17 -148 -32 -265 -50 -49 -8 -108 -19 -130 -24 -22 -6 -64 -11 -93 -11 -29 0 -85 -6 -125 -14 -40 -8 -199 -20 -356 -26 -322 -13 -802 0 -928 26 -40 8 -96 14 -125 14 -29 0 -73 5 -98 11 -25 6 -83 17 -130 24 -125 20 -199 35 -255 50 -27 8 -72 18 -100 24 -67 13 -163 37 -200 49 -67 22 -132 41 -165 47 -19 4 -40 11 -45 16 -6 4 -29 12 -50 18 -52 13 -132 40 -172 57 -17 8 -36 14 -41 14 -6 0 -23 7 -39 15 -15 8 -55 24 -88 36 -54 20 -102 40 -230 99 -22 10 -56 25 -75 33 -68 31 -146 69 -245 123 -55 29 -111 58 -124 64 -13 6 -44 24 -68 40 -24 17 -47 30 -51 30 -4 0 -31 16 -61 35 -29 19 -55 35 -57 35 -2 0 -27 16 -54 35 -27 19 -52 35 -55 35 -5 0 -79 51 -195 135 -41 30 -99 71 -129 91 -30 21 -61 44 -70 53 -9 9 -41 35 -71 59 -227 176 -530 468 -755 726 -78 90 -87 101 -137 166 -24 30 -50 62 -59 71 -9 9 -32 40 -53 70 -20 30 -61 88 -91 129 -63 87 -174 252 -210 312 -63 106 -133 226 -139 238 -4 8 -31 60 -60 115 -78 145 -127 245 -185 380 -12 28 -29 63 -36 78 -8 16 -15 34 -15 40 -1 7 -9 30 -20 52 -11 22 -19 47 -20 56 0 8 -7 24 -15 35 -8 10 -15 25 -15 32 0 8 -6 28 -14 45 -14 32 -40 107 -56 162 -5 17 -15 48 -24 70 -8 22 -15 48 -16 57 0 10 -6 32 -14 50 -7 18 -19 53 -25 78 -26 98 -41 157 -51 205 -6 28 -18 75 -25 105 -15 60 -28 129 -50 260 -8 47 -19 105 -24 130 -6 25 -10 68 -11 97 0 28 -6 82 -14 120 -8 38 -19 199 -26 363 -13 326 -2 748 25 940 8 58 19 141 25 185 19 135 53 327 75 415 7 30 19 78 25 105 10 48 25 107 51 205 6 25 18 60 25 78 8 18 14 40 14 50 1 9 8 35 16 57 9 22 19 54 24 70 16 55 42 130 56 162 8 17 14 37 14 45 0 7 7 22 15 32 8 11 15 27 15 35 1 9 9 34 20 56 11 22 19 45 20 52 0 6 7 24 15 40 7 15 24 51 36 78 42 98 112 248 141 300 14 25 20 37 55 105 31 62 187 331 213 370 10 14 43 63 74 110 31 47 79 117 107 155 28 39 66 93 85 121 19 28 44 62 57 75 12 14 41 49 65 79 143 185 424 485 608 650 121 109 207 183 284 242 30 24 64 52 77 64 12 12 51 40 85 64 35 24 89 61 121 83 31 22 57 44 57 48 0 5 5 9 10 9 6 0 33 16 60 35 27 19 52 35 55 35 3 0 27 15 53 33 44 31 269 166 302 181 8 3 47 24 85 45 85 47 212 111 280 141 85 37 179 81 208 96 16 8 34 14 40 14 7 1 30 9 52 20 22 11 47 19 56 20 8 0 24 7 35 15 10 8 25 15 32 15 8 0 28 6 45 14 32 14 104 39 162 56 17 5 53 16 80 25 28 9 75 23 105 31 30 9 69 20 85 26 36 12 132 36 200 50 28 5 73 16 100 23 71 20 266 55 410 75 44 6 130 18 190 26 101 14 375 29 600 32 50 1 209 -3 355 -9z" data-original="#000000" class="active-path" data-old_color="#00441b" fill="#00441b"/>
<path d="M7120 19324 c-12 -32 -12 -896 0 -974 19 -116 35 -167 86 -275 57 -119 149 -229 271 -323 48 -38 190 -112 213 -112 9 0 20 -4 25 -9 18 -18 160 -44 262 -48 74 -4 116 -1 156 11 30 9 66 16 79 16 12 0 36 7 52 15 15 8 33 15 40 15 6 0 36 14 66 30 30 16 66 34 79 40 98 44 261 219 326 350 94 189 90 157 93 743 3 389 0 522 -9 533 -10 12 -138 14 -870 14 l-859 0 -10 -26z" data-original="#000000" class="active-path" data-old_color="#00441b" fill="#00441b"/>
<path d="M7723 17013 c-13 -3 -25 -14 -28 -26 -3 -12 -4 -1795 -3 -3962 3 -3726 4 -3942 20 -3970 10 -16 18 -35 18 -41 0 -19 84 -99 125 -118 22 -10 48 -23 57 -27 24 -12 155 -11 163 0 3 5 18 12 33 16 39 8 125 85 153 137 l24 43 3 3965 c2 3722 1 3966 -15 3978 -12 9 -82 12 -272 11 -141 -1 -266 -4 -278 -6z" data-original="#000000" class="active-path" data-old_color="#00441b" fill="#00441b"/>
<path d="M23194 21642 c-43 -31 -162 -160 -232 -250 -24 -31 -47 -59 -52 -62 -8 -5 -68 -90 -128 -180 -20 -30 -43 -61 -49 -68 -7 -7 -13 -17 -13 -22 0 -5 -13 -28 -29 -52 -35 -52 -87 -143 -101 -178 -6 -14 -24 -52 -40 -85 -16 -33 -38 -82 -50 -110 -12 -27 -28 -62 -36 -77 -8 -14 -14 -33 -14 -42 0 -9 -6 -27 -14 -39 -8 -12 -17 -38 -21 -57 -4 -19 -11 -40 -16 -45 -4 -6 -12 -29 -18 -50 -5 -22 -14 -53 -19 -70 -26 -78 -59 -225 -99 -450 -17 -94 -18 -226 -18 -2226 0 -2012 1 -2128 18 -2146 9 -11 17 -24 17 -29 0 -20 81 -94 131 -118 l51 -26 473 0 c422 0 474 2 479 16 3 9 6 1424 6 3146 0 2891 -1 3133 -17 3165 -37 80 -138 106 -209 55z" data-original="#000000" class="active-path" data-old_color="#00441b" fill="#00441b"/>
<path d="M22825 14678 c-3 -7 -4 -1273 -3 -2813 l3 -2800 24 -40 c38 -62 113 -128 169 -147 52 -19 167 -24 176 -9 3 5 21 12 40 15 45 9 126 88 158 153 l23 48 3 2789 c2 2063 -1 2792 -9 2802 -16 19 -577 21 -584 2z" data-original="#000000" class="active-path" data-old_color="#00441b" fill="#00441b"/>
<path d="M14940 20499 c-41 -5 -131 -13 -200 -19 -138 -12 -247 -25 -330 -41 -30 -6 -84 -15 -120 -20 -36 -4 -87 -15 -115 -22 -94 -27 -150 -40 -203 -48 -29 -4 -58 -12 -65 -17 -7 -5 -32 -13 -57 -17 -25 -4 -50 -11 -56 -16 -6 -5 -31 -13 -55 -18 -50 -11 -129 -36 -176 -57 -17 -8 -40 -14 -50 -14 -11 0 -28 -7 -39 -15 -10 -8 -26 -15 -34 -15 -8 0 -33 -9 -55 -20 -22 -11 -47 -20 -55 -20 -8 0 -24 -7 -34 -15 -11 -8 -30 -15 -42 -15 -12 0 -27 -7 -34 -15 -7 -8 -19 -15 -27 -15 -8 0 -27 -6 -41 -14 -15 -8 -49 -25 -77 -37 -50 -22 -135 -62 -167 -80 -10 -5 -26 -13 -35 -18 -10 -6 -45 -24 -78 -41 -94 -48 -169 -91 -186 -106 -8 -8 -20 -14 -25 -14 -16 0 -348 -217 -385 -252 -11 -10 -22 -18 -25 -18 -8 0 -273 -209 -304 -240 -14 -14 -50 -45 -80 -70 -66 -54 -194 -176 -299 -284 -98 -102 -98 -102 -151 -166 -25 -30 -58 -68 -73 -85 -39 -41 -237 -292 -237 -299 0 -3 -8 -14 -17 -25 -36 -37 -188 -270 -273 -416 -119 -203 -290 -545 -290 -579 0 -8 -7 -19 -15 -26 -8 -7 -15 -22 -15 -34 0 -12 -7 -31 -15 -42 -8 -10 -15 -26 -15 -34 0 -8 -9 -32 -20 -53 -11 -20 -20 -45 -20 -54 0 -10 -7 -27 -15 -37 -8 -11 -15 -28 -15 -39 0 -10 -6 -33 -14 -50 -19 -44 -46 -125 -55 -167 -4 -19 -12 -44 -18 -55 -6 -11 -14 -39 -18 -63 -4 -24 -13 -56 -21 -70 -8 -15 -14 -38 -14 -51 0 -13 -6 -47 -14 -75 -21 -75 -36 -143 -48 -216 -5 -36 -16 -90 -24 -121 -8 -30 -14 -74 -14 -98 0 -23 -7 -74 -15 -114 -34 -171 -56 -768 -36 -972 6 -60 15 -162 20 -225 11 -126 26 -245 43 -330 5 -30 14 -80 18 -111 8 -58 32 -170 56 -254 7 -27 16 -69 20 -92 3 -24 9 -45 14 -48 4 -3 11 -26 15 -52 4 -27 12 -57 18 -68 6 -11 14 -36 18 -55 9 -42 36 -123 55 -167 8 -17 14 -40 14 -50 0 -11 7 -28 15 -39 8 -10 15 -27 15 -37 0 -9 9 -34 20 -54 11 -21 20 -45 20 -53 0 -8 7 -24 15 -34 8 -11 15 -30 15 -42 0 -12 7 -27 15 -34 8 -7 15 -19 15 -27 0 -8 6 -27 14 -41 8 -15 24 -49 36 -77 12 -27 33 -72 47 -100 23 -47 28 -58 52 -102 6 -10 24 -45 41 -78 48 -94 91 -169 106 -186 8 -8 14 -20 14 -25 0 -6 29 -54 65 -108 36 -55 76 -119 90 -142 14 -24 30 -44 35 -44 6 0 10 -4 10 -9 0 -14 52 -91 62 -91 4 0 8 -5 8 -11 0 -12 162 -219 248 -318 150 -170 218 -244 313 -336 103 -99 141 -134 273 -250 65 -57 277 -223 326 -255 13 -8 35 -25 50 -37 15 -13 33 -23 39 -23 6 0 11 -5 11 -10 0 -6 8 -14 17 -17 16 -6 166 -103 190 -123 13 -11 104 -63 143 -82 14 -7 27 -16 30 -20 3 -4 17 -12 30 -18 14 -6 57 -28 95 -50 39 -22 77 -42 85 -46 8 -3 33 -15 55 -27 68 -35 87 -44 210 -97 68 -29 115 -50 148 -66 16 -8 34 -14 40 -14 7 -1 30 -9 52 -20 22 -11 47 -20 55 -20 8 0 24 -7 34 -15 11 -8 28 -15 39 -15 10 0 33 -6 50 -14 44 -19 124 -45 172 -56 22 -5 58 -16 80 -24 22 -8 50 -15 62 -16 12 0 24 -4 28 -9 3 -6 27 -13 53 -16 26 -4 70 -13 97 -20 98 -27 181 -45 240 -54 33 -5 85 -14 115 -20 85 -16 193 -30 330 -41 69 -5 175 -15 235 -21 200 -20 781 2 952 37 40 8 91 14 114 14 24 0 68 6 98 14 31 8 85 19 121 25 94 15 200 36 240 49 36 11 89 25 175 46 28 7 63 18 78 24 16 7 36 12 45 12 9 0 30 7 46 15 15 8 36 15 45 15 9 0 29 7 45 15 16 9 46 20 65 25 44 11 115 36 158 55 17 8 36 15 41 15 6 0 23 6 39 14 15 8 51 24 78 36 94 41 110 49 265 124 85 42 182 92 215 111 33 19 74 42 90 50 17 9 42 23 56 33 15 9 51 32 80 50 158 97 412 275 482 337 7 6 30 24 52 40 21 17 47 37 55 45 9 8 32 28 51 44 200 171 392 361 564 560 33 38 67 77 76 86 9 10 21 24 25 33 9 14 44 59 92 115 13 15 39 50 58 77 19 28 59 84 89 125 30 41 69 99 87 128 18 30 38 61 43 70 6 10 24 37 40 62 40 61 53 82 63 105 6 11 30 54 54 95 41 70 157 303 207 415 13 28 29 64 36 80 8 17 30 73 50 125 20 52 43 110 51 128 8 18 14 40 14 50 1 9 9 35 20 57 11 22 19 49 20 61 0 11 4 24 9 30 5 5 16 36 25 69 9 33 23 83 31 110 16 58 32 118 50 195 28 115 37 157 47 220 5 36 16 90 24 121 8 30 14 74 14 98 0 23 6 74 14 114 35 171 57 752 37 952 -6 61 -16 166 -21 235 -11 136 -25 245 -41 330 -6 30 -17 89 -24 130 -27 147 -43 220 -53 247 -6 16 -13 49 -17 75 -3 26 -10 50 -14 53 -5 2 -12 26 -16 52 -4 27 -11 53 -16 59 -5 6 -13 31 -18 55 -11 50 -36 129 -57 176 -8 17 -14 40 -14 50 0 11 -7 28 -15 39 -8 10 -15 27 -15 37 0 9 -9 34 -20 54 -11 21 -20 43 -20 50 0 6 -6 24 -14 40 -7 15 -21 45 -30 66 -8 20 -22 52 -30 70 -8 17 -24 55 -36 82 -29 67 -93 194 -141 280 -21 39 -42 77 -45 85 -20 43 -165 283 -191 315 -9 11 -42 60 -58 87 -35 57 -80 118 -87 118 -4 0 -8 5 -8 10 0 12 -200 270 -240 310 -14 14 -47 52 -75 85 -81 98 -292 310 -415 418 -63 55 -119 106 -125 112 -24 26 -284 225 -294 225 -6 0 -11 4 -11 8 0 10 -77 62 -91 62 -5 0 -9 4 -9 10 0 5 -21 22 -47 37 -27 15 -50 30 -53 33 -5 5 -50 36 -82 55 -129 77 -267 157 -323 186 -166 88 -377 189 -393 189 -6 0 -23 7 -39 15 -57 29 -120 55 -134 55 -8 0 -23 7 -33 15 -11 8 -29 15 -40 15 -12 0 -30 7 -40 15 -11 8 -28 15 -39 15 -10 0 -33 6 -50 14 -44 19 -125 46 -167 55 -19 4 -44 12 -55 18 -11 6 -41 14 -68 18 -26 4 -49 11 -52 15 -3 5 -24 11 -48 15 -23 4 -64 13 -92 20 -78 21 -143 35 -230 50 -44 7 -105 18 -135 24 -87 16 -205 31 -330 41 -63 5 -160 14 -215 20 -115 12 -524 11 -635 -1z m1345 -609 c71 -12 136 -30 168 -46 16 -8 34 -14 40 -14 17 0 163 -76 222 -116 28 -18 68 -50 90 -70 52 -47 2647 -2638 2773 -2769 54 -55 113 -125 133 -155 43 -64 119 -210 119 -227 0 -6 6 -24 14 -40 15 -30 32 -89 46 -163 11 -58 11 -342 0 -400 -20 -105 -40 -168 -80 -255 -10 -22 -21 -47 -25 -55 -41 -104 -239 -326 -359 -404 -70 -46 -204 -116 -221 -116 -7 0 -26 -7 -41 -15 -16 -8 -39 -15 -52 -15 -13 0 -36 -7 -52 -15 -38 -20 -304 -30 -415 -16 -86 10 -194 37 -209 52 -6 5 -16 9 -24 9 -38 0 -197 90 -292 165 -85 67 -2827 2810 -2895 2895 -101 127 -147 218 -211 425 -28 88 -28 432 0 520 79 251 143 363 295 516 92 91 208 179 271 204 8 4 33 15 55 25 86 39 149 59 250 79 54 11 338 12 400 1z m-2304 -1167 c8 -6 32 -14 54 -18 22 -4 51 -13 65 -20 14 -6 47 -23 75 -36 109 -53 262 -178 315 -259 8 -12 23 -32 32 -45 23 -30 88 -155 88 -169 0 -6 7 -24 15 -40 9 -16 20 -59 26 -95 6 -36 15 -88 19 -116 5 -27 9 -76 9 -107 1 -63 23 -117 76 -183 18 -22 158 -166 312 -320 282 -283 333 -344 392 -470 81 -170 83 -192 79 -1025 -3 -659 -4 -718 -20 -747 -10 -18 -18 -39 -18 -48 0 -17 -28 -86 -62 -150 -131 -249 -407 -438 -673 -460 -136 -11 -245 -35 -288 -62 -23 -14 -240 -225 -484 -469 -245 -243 -468 -458 -496 -477 -113 -75 -241 -130 -347 -149 -88 -16 -758 -22 -870 -8 -86 11 -183 36 -235 60 -11 5 -31 14 -45 20 -100 43 -239 159 -327 273 -47 61 -123 201 -123 227 0 9 -4 20 -10 26 -14 14 -41 163 -50 279 -12 157 1 140 -387 530 -226 228 -322 331 -337 365 -3 8 -15 29 -26 45 -21 32 -24 39 -47 95 -40 99 -54 160 -63 273 -12 155 -12 1234 0 1389 14 180 66 320 175 463 61 80 1183 1205 1260 1262 112 84 225 137 375 173 57 13 1524 7 1541 -7z m2836 -2905 c50 -19 80 -44 228 -189 468 -460 1043 -1044 1074 -1091 l36 -53 3 -388 c2 -228 -1 -408 -7 -435 -59 -282 -226 -505 -466 -621 -28 -13 -59 -28 -70 -34 -18 -9 -87 -28 -170 -47 -22 -5 -72 -9 -110 -10 -99 0 -198 -38 -247 -95 -46 -52 -58 -69 -58 -80 0 -7 -7 -26 -15 -41 -9 -19 -15 -58 -15 -109 0 -44 -5 -98 -11 -120 -6 -22 -15 -60 -20 -85 -10 -44 -19 -68 -63 -160 -32 -67 -112 -177 -169 -232 -48 -46 -206 -158 -223 -158 -4 0 -26 -8 -48 -19 -23 -10 -61 -24 -86 -30 -25 -7 -61 -16 -80 -21 -19 -5 -69 -10 -111 -10 -209 0 -349 -126 -349 -314 0 -40 -6 -96 -14 -126 -7 -30 -17 -73 -21 -95 -4 -22 -10 -44 -15 -50 -4 -5 -11 -21 -15 -35 -7 -26 -46 -111 -55 -120 -3 -3 -21 -30 -41 -60 -61 -93 -154 -180 -264 -247 -62 -37 -142 -73 -164 -73 -9 0 -29 -7 -45 -15 -46 -24 -290 -38 -599 -33 -273 3 -284 4 -332 27 -39 19 -180 154 -665 638 -575 574 -617 618 -639 673 -60 151 19 321 173 373 18 6 184 13 391 16 357 6 360 6 408 31 103 52 167 160 167 282 1 40 5 91 10 113 5 22 14 63 20 90 11 49 15 60 60 160 57 125 196 283 303 344 31 18 59 36 62 42 4 5 14 9 24 9 10 0 24 6 30 14 7 8 28 17 49 21 20 4 42 11 48 16 13 10 96 24 239 39 121 14 188 42 240 102 53 63 75 119 75 197 1 36 5 84 9 106 5 22 14 65 20 95 20 101 80 227 150 320 62 81 203 210 229 210 6 0 17 6 24 13 15 15 99 57 114 57 5 0 22 7 38 15 15 8 53 19 85 25 31 5 83 14 116 20 33 5 82 10 108 10 90 0 192 66 240 155 21 38 22 55 27 395 4 320 7 361 25 414 36 107 152 194 262 195 22 1 67 -9 100 -21z" data-original="#000000" class="active-path" data-old_color="#00441b" fill="#00441b"/>
<path d="M15986 19334 c-43 -8 -88 -21 -100 -29 -11 -8 -26 -15 -34 -15 -22 0 -104 -63 -168 -129 -137 -141 -173 -415 -79 -595 18 -35 41 -73 51 -85 l18 -21 744 0 c614 0 744 2 748 14 3 8 -132 150 -348 366 -382 381 -425 421 -498 450 -14 6 -34 15 -45 20 -25 12 -163 40 -190 39 -11 -1 -55 -8 -99 -15z" data-original="#000000" class="active-path" data-old_color="#00441b" fill="#00441b"/>
<path d="M16275 17880 c-3 -6 3 -22 14 -38 11 -15 203 -210 428 -435 l409 -407 744 2 c684 3 745 4 748 20 2 10 -147 167 -423 442 l-426 426 -744 0 c-488 0 -746 -3 -750 -10z" data-original="#000000" class="active-path" data-old_color="#00441b" fill="#00441b"/>
<path d="M17724 16419 c-6 -11 693 -716 761 -767 52 -40 137 -75 225 -93 79 -17 91 -17 175 -2 133 24 233 76 311 163 55 61 66 77 94 137 31 65 65 221 55 252 -2 9 -9 46 -14 82 -9 69 -56 177 -93 217 l-21 22 -743 0 c-539 0 -745 -3 -750 -11z" data-original="#000000" class="active-path" data-old_color="#00441b" fill="#00441b"/>
<path d="M12545 18173 c-90 -12 -118 -37 -712 -630 -315 -316 -584 -590 -597 -611 -54 -87 -56 -110 -56 -794 0 -697 1 -706 63 -800 18 -26 165 -181 328 -345 162 -164 309 -320 327 -348 17 -27 36 -55 42 -62 5 -7 10 -15 10 -19 0 -4 9 -28 21 -53 12 -25 27 -59 34 -76 24 -59 46 -173 52 -275 9 -142 46 -221 136 -287 95 -70 111 -72 485 -73 360 0 389 3 475 57 20 13 235 221 477 462 241 241 465 456 497 478 147 100 253 139 418 154 225 21 317 64 390 179 51 81 55 136 55 756 0 616 -3 663 -53 744 -27 44 8 7 -338 356 -163 165 -304 314 -315 332 -10 17 -22 32 -26 32 -4 0 -8 4 -8 9 0 5 -16 37 -35 71 -19 34 -35 67 -35 73 0 7 -7 25 -15 40 -8 15 -19 49 -24 75 -6 26 -15 67 -20 92 -6 25 -10 81 -11 125 0 46 -6 91 -14 106 -7 14 -16 37 -19 51 -10 37 -103 129 -162 158 l-50 25 -645 1 c-355 1 -658 0 -675 -3z m600 -903 c70 -10 156 -34 202 -55 17 -8 35 -15 41 -15 13 0 144 -69 163 -86 8 -8 19 -14 23 -14 11 0 108 -78 170 -138 170 -165 296 -404 328 -622 27 -188 27 -207 -1 -410 -11 -85 -37 -165 -90 -281 -12 -25 -21 -51 -21 -58 0 -6 -4 -11 -8 -11 -5 0 -14 -12 -21 -27 -19 -42 -110 -162 -166 -218 -55 -56 -187 -165 -200 -165 -5 0 -16 -6 -24 -14 -19 -15 -77 -46 -141 -74 -25 -11 -61 -27 -82 -36 -20 -9 -48 -16 -63 -16 -14 0 -39 -7 -56 -15 -38 -20 -322 -31 -429 -17 -181 25 -390 112 -538 227 -45 35 -176 169 -214 220 -116 156 -175 293 -218 505 -11 58 -11 322 0 380 19 92 36 156 48 177 6 12 12 27 12 33 0 13 36 97 50 120 6 8 15 27 21 43 6 15 15 27 20 27 5 0 9 6 9 13 0 37 175 231 282 313 31 24 59 44 62 44 3 0 22 12 43 26 57 39 158 82 288 125 108 35 342 44 510 19z" data-original="#000000" class="active-path" data-old_color="#00441b" fill="#00441b"/>
<path d="M12795 16711 c-191 -53 -349 -197 -413 -376 -40 -112 -38 -316 4 -405 9 -19 26 -55 37 -80 12 -24 58 -81 102 -125 98 -98 178 -141 314 -167 87 -16 99 -16 190 -1 53 9 105 22 116 29 11 8 27 14 37 14 9 0 23 6 30 14 8 7 25 17 38 21 43 14 172 155 213 233 20 39 37 80 37 91 0 10 7 35 15 54 19 47 19 198 0 252 -8 22 -15 47 -15 55 -1 18 -36 90 -73 148 -35 55 -145 161 -174 168 -13 4 -23 9 -23 14 0 9 -68 37 -140 57 -79 23 -221 25 -295 4z" data-original="#000000" class="active-path" data-old_color="#00441b" fill="#00441b"/>
<path d="M16990 14816 c-10 -25 -22 -62 -26 -83 -11 -63 -92 -219 -154 -297 -32 -41 -89 -98 -127 -128 -81 -63 -91 -70 -163 -104 -96 -46 -114 -52 -165 -64 -27 -6 -68 -15 -90 -20 -22 -5 -76 -9 -121 -10 -54 0 -86 -5 -100 -15 -10 -8 -27 -15 -36 -15 -27 0 -123 -101 -147 -154 -15 -34 -21 -69 -21 -120 -1 -39 -5 -89 -10 -111 -5 -22 -14 -62 -19 -90 -14 -65 -63 -184 -104 -250 -40 -65 -129 -164 -192 -215 -82 -65 -221 -136 -305 -158 -30 -7 -71 -17 -90 -22 -19 -5 -69 -10 -112 -10 -184 0 -328 -125 -328 -285 0 -31 -6 -88 -14 -128 -8 -40 -17 -89 -21 -109 -3 -20 -12 -50 -20 -65 -8 -15 -15 -33 -15 -39 0 -6 -11 -31 -25 -55 -14 -24 -30 -55 -37 -69 -7 -14 -16 -29 -20 -35 -129 -176 -293 -293 -493 -350 -80 -23 -105 -33 -105 -43 0 -4 132 -139 293 -300 l293 -292 231 0 c301 0 361 14 441 99 58 62 82 123 82 205 0 39 6 96 14 126 7 30 17 73 20 95 4 22 13 54 20 70 8 17 24 53 36 80 68 150 193 284 355 382 11 7 27 15 35 18 8 4 22 10 31 15 44 23 171 59 229 64 136 13 217 28 260 49 84 39 160 145 160 223 0 21 5 66 10 99 5 33 14 90 19 126 6 36 17 79 26 95 8 16 15 34 15 40 0 21 70 146 114 203 80 104 212 213 311 256 121 54 161 63 375 89 83 9 114 18 147 39 55 35 93 74 123 128 24 43 25 49 28 311 2 154 0 273 -5 283 -9 16 -556 570 -574 581 -5 3 -18 -15 -29 -40z" data-original="#000000" class="active-path" data-old_color="#00441b" fill="#00441b"/>
</g></g> </svg>
